<svg version="1.1" xmlns="http://www.w3.org/2000/svg" viewBox="0 0 1272.1239674886071 1745.5502232142856" width="2544.2479349772143" height="3491.100446428571">
  <!-- svg-source:excalidraw -->
  
  <defs>
    <style class="style-fonts">
      @font-face {
        font-family: "Virgil";
        src: url("https://excalidraw.com/Virgil.woff2");
      }
      @font-face {
        font-family: "Cascadia";
        src: url("https://excalidraw.com/Cascadia.woff2");
      }
    </style>
  </defs>
  <rect x="0" y="0" width="1272.1239674886071" height="1745.5502232142856" fill="#f5faff"></rect><g stroke-linecap="round" transform="translate(109.328125 34.09765625) rotate(0 54.91015625 17.5)"><path d="M8.75 0 M8.75 0 C34.44 0.91, 62.28 1.14, 101.07 0 M8.75 0 C33.63 0.54, 57.45 -1.13, 101.07 0 M101.07 0 C106.71 -1.89, 110.19 3.5, 109.82 8.75 M101.07 0 C107.53 -0.29, 110.08 3.79, 109.82 8.75 M109.82 8.75 C111.67 12.49, 111.29 17.46, 109.82 26.25 M109.82 8.75 C109.3 15.23, 109.73 20.68, 109.82 26.25 M109.82 26.25 C111.05 33.16, 105.12 33.01, 101.07 35 M109.82 26.25 C109.15 30.12, 107.37 33.28, 101.07 35 M101.07 35 C74.42 35.57, 42.87 35.93, 8.75 35 M101.07 35 C68.01 34.19, 35.26 35.67, 8.75 35 M8.75 35 C4.53 33.42, 1.44 33.99, 0 26.25 M8.75 35 C3.46 35.81, 1.82 33.44, 0 26.25 M0 26.25 C0.57 18.62, 0.61 11.73, 0 8.75 M0 26.25 C-0.29 22, 0.49 17.3, 0 8.75 M0 8.75 C0.94 1.49, 2.56 1.63, 8.75 0 M0 8.75 C-1.35 2.23, 3.2 -1.85, 8.75 0" stroke="#1e1e1e" stroke-width="1" fill="none"></path></g><g transform="translate(145.51830291748047 39.09765625) rotate(0 18.71997833251953 12.5)"><text x="18.71997833251953" y="0" font-family="Virgil, Segoe UI Emoji" font-size="20px" fill="#1e1e1e" text-anchor="middle" style="white-space: pre;" direction="ltr" dominant-baseline="text-before-edge">logo</text></g><g stroke-linecap="round" transform="translate(354.02734375 33.69921875) rotate(0 37.46875 30)"><path d="M15 0 M15 0 C26.93 -2.11, 41.64 -1.28, 59.94 0 M15 0 C29.7 -0.77, 43.94 -0.78, 59.94 0 M59.94 0 C69.79 -0.79, 74.95 4.05, 74.94 15 M59.94 0 C68.56 -0.13, 73.74 6.23, 74.94 15 M74.94 15 C75.89 26.38, 76.23 37.78, 74.94 45 M74.94 15 C75.25 23.28, 75.83 33.7, 74.94 45 M74.94 45 C74.79 54.04, 68.47 59.03, 59.94 60 M74.94 45 C76.53 55.85, 70.88 61.07, 59.94 60 M59.94 60 C48.02 58.14, 39.17 60.22, 15 60 M59.94 60 C49.54 60.31, 38.26 59.35, 15 60 M15 60 C4.43 59.23, -0.65 55.14, 0 45 M15 60 C6.6 58.62, -0.89 54.72, 0 45 M0 45 C0.78 37.29, 0.29 29.88, 0 15 M0 45 C-0.17 37.36, 0.5 27.77, 0 15 M0 15 C0 6.76, 4.53 -0.69, 15 0 M0 15 C-0.73 5.07, 2.83 -1.47, 15 0" stroke="#1e1e1e" stroke-width="1" fill="none"></path></g><g transform="translate(362.8761215209961 38.69921875) rotate(0 28.619972229003906 25)"><text x="28.619972229003906" y="0" font-family="Virgil, Segoe UI Emoji" font-size="20px" fill="#1e1e1e" text-anchor="middle" style="white-space: pre;" direction="ltr" dominant-baseline="text-before-edge">about</text><text x="28.619972229003906" y="25" font-family="Virgil, Segoe UI Emoji" font-size="20px" fill="#1e1e1e" text-anchor="middle" style="white-space: pre;" direction="ltr" dominant-baseline="text-before-edge">me</text></g><g stroke-linecap="round" transform="translate(255.16015625 35.05078125) rotate(0 39.37890625 26.7421875)"><path d="M13.37 0 M13.37 0 C23.3 -1.27, 34.67 -0.02, 65.39 0 M13.37 0 C26.67 0.14, 39 0.47, 65.39 0 M65.39 0 C73.76 -1.42, 79 6.24, 78.76 13.37 M65.39 0 C72.33 -0.03, 76.72 3.06, 78.76 13.37 M78.76 13.37 C79.58 24.08, 77.73 36.02, 78.76 40.11 M78.76 13.37 C78.93 19.26, 78.39 25.84, 78.76 40.11 M78.76 40.11 C79.92 50.56, 74.2 54.05, 65.39 53.48 M78.76 40.11 C77.5 51.23, 75.88 55.47, 65.39 53.48 M65.39 53.48 C54.58 54.77, 42.08 55.86, 13.37 53.48 M65.39 53.48 C49.58 52.98, 34.6 53.05, 13.37 53.48 M13.37 53.48 C6.01 55, 1.28 48.56, 0 40.11 M13.37 53.48 C2.53 52.17, -2.28 49.65, 0 40.11 M0 40.11 C-1.98 32.34, -0.65 21.76, 0 13.37 M0 40.11 C1.01 30.63, 0.21 22.3, 0 13.37 M0 13.37 C-1.02 3.62, 4.73 -1.64, 13.37 0 M0 13.37 C2.06 4.06, 2.93 -0.7, 13.37 0" stroke="#1e1e1e" stroke-width="1" fill="none"></path></g><g transform="translate(272.2590866088867 49.29296875) rotate(0 22.27997589111328 12.5)"><text x="22.27997589111328" y="0" font-family="Virgil, Segoe UI Emoji" font-size="20px" fill="#1e1e1e" text-anchor="middle" style="white-space: pre;" direction="ltr" dominant-baseline="text-before-edge">home</text></g><g stroke-linecap="round" transform="translate(450.62109375 30.87109375) rotate(0 39.349609375 28.552734375)"><path d="M14.28 0 M14.28 0 C30.78 1.63, 42.22 -0.03, 64.42 0 M14.28 0 C26.65 1, 40.84 -0.09, 64.42 0 M64.42 0 C74.43 -0.25, 79.05 5.37, 78.7 14.28 M64.42 0 C75.47 2.28, 79.15 5.35, 78.7 14.28 M78.7 14.28 C80.01 25.07, 77.81 36.23, 78.7 42.83 M78.7 14.28 C78.79 22.46, 78.38 31.15, 78.7 42.83 M78.7 42.83 C77.08 54.29, 73.15 56.28, 64.42 57.11 M78.7 42.83 C76.54 53.19, 74.78 59.03, 64.42 57.11 M64.42 57.11 C51.33 58.89, 39.37 56.8, 14.28 57.11 M64.42 57.11 C53.76 56.26, 44.44 56.75, 14.28 57.11 M14.28 57.11 C5.97 55.14, 0.21 53.77, 0 42.83 M14.28 57.11 C4.34 56.28, 1.58 51.68, 0 42.83 M0 42.83 C-1.24 35.1, -0.89 25.65, 0 14.28 M0 42.83 C0.09 35.28, 0.61 29.1, 0 14.28 M0 14.28 C0.55 3.1, 6.31 1.65, 14.28 0 M0 14.28 C-1.64 7.03, 6.41 -1.98, 14.28 0" stroke="#1e1e1e" stroke-width="1" fill="none"></path></g><g transform="translate(466.79073333740234 46.923828125) rotate(0 23.179969787597656 12.5)"><text x="23.179969787597656" y="0" font-family="Virgil, Segoe UI Emoji" font-size="20px" fill="#1e1e1e" text-anchor="middle" style="white-space: pre;" direction="ltr" dominant-baseline="text-before-edge">skills</text></g><g stroke-linecap="round" transform="translate(558.05859375 37.71484375) rotate(0 47.1796875 26.89453125)"><path d="M13.45 0 M13.45 0 C30.55 0.09, 43.63 0.37, 80.91 0 M13.45 0 C39.82 0.05, 65.18 0.44, 80.91 0 M80.91 0 C88.9 -1.3, 95.36 6.47, 94.36 13.45 M80.91 0 C90.2 0.54, 96.16 4.03, 94.36 13.45 M94.36 13.45 C92.62 21.21, 95.6 31.26, 94.36 40.34 M94.36 13.45 C94.4 20.39, 94.14 26.37, 94.36 40.34 M94.36 40.34 C94.22 51.26, 88.41 52.03, 80.91 53.79 M94.36 40.34 C96.53 48.53, 92.06 54.28, 80.91 53.79 M80.91 53.79 C57.76 52.62, 35.82 53.1, 13.45 53.79 M80.91 53.79 C53.5 52.53, 27.87 53.15, 13.45 53.79 M13.45 53.79 C5.24 54.12, 0.3 49.83, 0 40.34 M13.45 53.79 C2.37 52.09, 1.42 51.28, 0 40.34 M0 40.34 C1.03 29.2, -0.23 19.43, 0 13.45 M0 40.34 C0.51 32, 0.59 25.45, 0 13.45 M0 13.45 C-1.88 2.52, 3.45 1.34, 13.45 0 M0 13.45 C2.18 5.66, 4.88 -1.16, 13.45 0" stroke="#1e1e1e" stroke-width="1" fill="none"></path></g><g transform="translate(565.6183242797852 52.109375) rotate(0 39.619956970214844 12.5)"><text x="39.619956970214844" y="0" font-family="Virgil, Segoe UI Emoji" font-size="20px" fill="#1e1e1e" text-anchor="middle" style="white-space: pre;" direction="ltr" dominant-baseline="text-before-edge">projects</text></g><g stroke-linecap="round" transform="translate(678.03515625 40.703125) rotate(0 44.28125 30)"><path d="M15 0 M15 0 C35.8 -0.78, 54.85 0.66, 73.56 0 M15 0 C36.49 1.16, 55.93 -0.08, 73.56 0 M73.56 0 C84.48 1.59, 90 6.83, 88.56 15 M73.56 0 C81.96 0.23, 88.45 2.92, 88.56 15 M88.56 15 C89.19 23.28, 90.44 32.08, 88.56 45 M88.56 15 C88.29 22.95, 88.02 30.99, 88.56 45 M88.56 45 C89.64 56.73, 83.99 58.68, 73.56 60 M88.56 45 C88.46 55.21, 82.87 58.17, 73.56 60 M73.56 60 C53.78 60.07, 35.06 59.84, 15 60 M73.56 60 C50.64 60.06, 29.26 60.78, 15 60 M15 60 C4.46 60.7, 0.7 53.69, 0 45 M15 60 C5.19 60.86, 2.03 55.03, 0 45 M0 45 C0.13 34.65, 0.09 23.09, 0 15 M0 45 C-0.53 38.97, 0.11 30.82, 0 15 M0 15 C0.61 5, 4.14 1.58, 15 0 M0 15 C0.59 7.17, 5.33 1.71, 15 0" stroke="#1e1e1e" stroke-width="1" fill="none"></path></g><g transform="translate(684.096435546875 45.703125) rotate(0 38.219970703125 25)"><text x="38.219970703125" y="0" font-family="Virgil, Segoe UI Emoji" font-size="20px" fill="#1e1e1e" text-anchor="middle" style="white-space: pre;" direction="ltr" dominant-baseline="text-before-edge">contact</text><text x="38.219970703125" y="25" font-family="Virgil, Segoe UI Emoji" font-size="20px" fill="#1e1e1e" text-anchor="middle" style="white-space: pre;" direction="ltr" dominant-baseline="text-before-edge">me</text></g><g stroke-linecap="round" transform="translate(48.92578125 23.1875) rotate(0 362.322265625 170.818359375)"><path d="M32 0 M32 0 C198.19 1.72, 362.52 2.62, 692.64 0 M32 0 C214.52 -2.66, 396.99 -2.66, 692.64 0 M692.64 0 C715.18 0.88, 724.6 9.99, 724.64 32 M692.64 0 C712.81 -2.13, 725.04 8.64, 724.64 32 M724.64 32 C722.52 87.62, 721.58 146.64, 724.64 309.64 M724.64 32 C725.96 96.64, 724.94 161.79, 724.64 309.64 M724.64 309.64 C725.68 332.95, 713.29 342.68, 692.64 341.64 M724.64 309.64 C725.97 330.13, 713.73 341.97, 692.64 341.64 M692.64 341.64 C511.19 342.74, 328.2 342.86, 32 341.64 M692.64 341.64 C483.04 344.1, 274.29 343.94, 32 341.64 M32 341.64 C11.11 339.95, -0.46 330.94, 0 309.64 M32 341.64 C10.73 341.99, 0.85 332.57, 0 309.64 M0 309.64 C-0.4 247.09, -1.25 182.21, 0 32 M0 309.64 C2.35 200.77, 1.39 90.92, 0 32 M0 32 C1.93 10.21, 12.5 1.52, 32 0 M0 32 C1.93 8.75, 10.81 -2.19, 32 0" stroke="#1e1e1e" stroke-width="1" fill="none"></path></g><g stroke-linecap="round" transform="translate(100.92578125 124.1328125) rotate(0 320.7265625 94.21484375)"><path d="M32 0 M32 0 C210.6 1.34, 389.65 1.19, 609.45 0 M32 0 C207.76 0.46, 382.64 0.33, 609.45 0 M609.45 0 C628.92 -1.44, 641.22 10.45, 641.45 32 M609.45 0 C631.83 1.67, 642.2 11.29, 641.45 32 M641.45 32 C643.78 72.36, 643 113.41, 641.45 156.43 M641.45 32 C640.55 59.27, 640.51 87.91, 641.45 156.43 M641.45 156.43 C641.23 177.21, 628.84 188.56, 609.45 188.43 M641.45 156.43 C643.19 177.61, 629.51 189.62, 609.45 188.43 M609.45 188.43 C426.55 190, 244.14 190.49, 32 188.43 M609.45 188.43 C414.03 189.75, 218.76 189.99, 32 188.43 M32 188.43 C9.87 188.73, -1.77 179.61, 0 156.43 M32 188.43 C11.22 188.84, 0.01 180.03, 0 156.43 M0 156.43 C0.24 126.65, 0.64 94, 0 32 M0 156.43 C-0.52 111.27, -0.55 66.87, 0 32 M0 32 C0.96 12.64, 11.12 0.73, 32 0 M0 32 C1.73 10.4, 9.6 -0.68, 32 0" stroke="#1e1e1e" stroke-width="1" fill="none"></path></g><g transform="translate(651.42578125 209.29296875) rotate(0 13.529983520507812 12.5)"><text x="0" y="0" font-family="Virgil, Segoe UI Emoji" font-size="20px" fill="#1e1e1e" text-anchor="start" style="white-space: pre;" direction="ltr" dominant-baseline="text-before-edge">img</text></g><g stroke-linecap="round" transform="translate(148.74609375 142.43359375) rotate(0 117.97265625 85.095703125)"><path d="M32 0 M32 0 C85.82 -1.51, 141.48 1.47, 203.95 0 M32 0 C92.61 -1.73, 152.24 -1.17, 203.95 0 M203.95 0 C224.95 -1.91, 237.65 9.21, 235.95 32 M203.95 0 C226.81 0.59, 234.68 8.44, 235.95 32 M235.95 32 C235.99 73.47, 234.85 112.95, 235.95 138.19 M235.95 32 C234.39 73.99, 236.01 114.17, 235.95 138.19 M235.95 138.19 C236.86 159.03, 225.88 168.73, 203.95 170.19 M235.95 138.19 C238.02 158.25, 223.72 172.38, 203.95 170.19 M203.95 170.19 C161.07 173.03, 118.73 169.67, 32 170.19 M203.95 170.19 C142.62 168.73, 82.31 168.08, 32 170.19 M32 170.19 C9.93 168.36, 0.29 160.95, 0 138.19 M32 170.19 C11.26 172.18, -0.61 157.29, 0 138.19 M0 138.19 C1.06 100.38, 0.11 60.37, 0 32 M0 138.19 C-0.38 112.47, -1.04 88.61, 0 32 M0 32 C-1.69 10.54, 9.78 -1.2, 32 0 M0 32 C-1.8 11.28, 11.63 0.12, 32 0" stroke="#1e1e1e" stroke-width="1" fill="none"></path></g><g transform="translate(200.671875 224.73046875) rotate(0 22.389976501464844 12.5)"><text x="0" y="0" font-family="Virgil, Segoe UI Emoji" font-size="20px" fill="#1e1e1e" text-anchor="start" style="white-space: pre;" direction="ltr" dominant-baseline="text-before-edge">text</text></g><g transform="translate(598.03125 196.09765625) rotate(0 52.52995300292969 12.5)"><text x="0" y="0" font-family="Virgil, Segoe UI Emoji" font-size="20px" fill="#1e1e1e" text-anchor="start" style="white-space: pre;" direction="ltr" dominant-baseline="text-before-edge">background</text></g><g stroke-linecap="round" transform="translate(62.46484375 394.58463541666674) rotate(0 355.046875 145.337890625)"><path d="M32 0 M32 0 C175.58 -1.53, 318.96 -2.12, 678.09 0 M32 0 C272.88 -0.01, 514.45 -0.56, 678.09 0 M678.09 0 C698.97 -1.97, 708.5 12.04, 710.09 32 M678.09 0 C701.16 -2.23, 709.29 11.89, 710.09 32 M710.09 32 C708.99 79.97, 709.95 124.97, 710.09 258.68 M710.09 32 C709.41 100.36, 709.15 170.18, 710.09 258.68 M710.09 258.68 C710.73 280.97, 699.95 292.38, 678.09 290.68 M710.09 258.68 C708.53 282.3, 697.88 292.61, 678.09 290.68 M678.09 290.68 C438.36 288.59, 199.05 289.05, 32 290.68 M678.09 290.68 C517.05 290.53, 356.41 290.71, 32 290.68 M32 290.68 C9.72 291.62, 0.91 278.35, 0 258.68 M32 290.68 C8.91 288.4, 1.21 281.49, 0 258.68 M0 258.68 C0.53 209.03, 1.32 155.7, 0 32 M0 258.68 C0.6 181.47, 0.97 104.74, 0 32 M0 32 C1.1 9.13, 8.95 0.69, 32 0 M0 32 C-1.22 9.14, 11.22 -0.32, 32 0" stroke="#1e1e1e" stroke-width="1" fill="none"></path></g><g transform="translate(137.80078125 440.76953125) rotate(0 45.419960021972656 12.5)"><text x="0" y="0" font-family="Virgil, Segoe UI Emoji" font-size="20px" fill="#1e1e1e" text-anchor="start" style="white-space: pre;" direction="ltr" dominant-baseline="text-before-edge">about me</text></g><g stroke-linecap="round" transform="translate(10 10) rotate(0 444.3940662202381 862.7751116071428)"><path d="M32 0 M32 0 C200.08 -1.64, 367.15 -1.07, 856.79 0 M32 0 C243.36 -2.71, 455.13 -2.47, 856.79 0 M856.79 0 C876.55 -0.38, 889.26 10.34, 888.79 32 M856.79 0 C877.48 -1.85, 887.52 9.97, 888.79 32 M888.79 32 C883.31 429.32, 882.45 826.85, 888.79 1693.55 M888.79 32 C887.03 644.07, 886.76 1255.86, 888.79 1693.55 M888.79 1693.55 C888.95 1716.76, 876.4 1726.18, 856.79 1725.55 M888.79 1693.55 C887.64 1716.95, 878.83 1723.68, 856.79 1725.55 M856.79 1725.55 C647.09 1722.53, 437.1 1722.06, 32 1725.55 M856.79 1725.55 C583 1722.25, 308.43 1722.21, 32 1725.55 M32 1725.55 C10.51 1726.58, -1.8 1715.12, 0 1693.55 M32 1725.55 C11.63 1727.46, 1.39 1712.83, 0 1693.55 M0 1693.55 C0.33 1052.29, -0.57 411.47, 0 32 M0 1693.55 C-4.12 1047.67, -4.8 402.37, 0 32 M0 32 C-1.16 12.38, 10.19 -1.42, 32 0 M0 32 C1.13 10.29, 8.62 -1.8, 32 0" stroke="#1e1e1e" stroke-width="1" fill="none"></path></g><g stroke-linecap="round" transform="translate(132.6875 524.2890625) rotate(0 66.412109375 68.279296875)"><path d="M32 0 M32 0 C46.57 -0.56, 63.72 -0.57, 100.82 0 M32 0 C54.13 -0.77, 77.39 -0.5, 100.82 0 M100.82 0 C121.63 -0.9, 134.06 10.43, 132.82 32 M100.82 0 C123.45 -1.84, 133.72 12.25, 132.82 32 M132.82 32 C133 55.27, 132.41 78.8, 132.82 104.56 M132.82 32 C133.08 58.62, 133.81 83.77, 132.82 104.56 M132.82 104.56 C134.06 126.99, 121.07 135.81, 100.82 136.56 M132.82 104.56 C132.68 124.16, 123.73 134.31, 100.82 136.56 M100.82 136.56 C78.69 135.98, 55.45 136.83, 32 136.56 M100.82 136.56 C78.96 137.68, 58.65 136.13, 32 136.56 M32 136.56 C11.53 134.65, -1.73 124.45, 0 104.56 M32 136.56 C8.65 134.94, -2.11 124.38, 0 104.56 M0 104.56 C2.25 86.75, 0.83 65.85, 0 32 M0 104.56 C-1.08 83.02, -0.01 59.92, 0 32 M0 32 C1.11 10.85, 8.85 -1.2, 32 0 M0 32 C-0.67 12.57, 11.65 1.09, 32 0" stroke="#1e1e1e" stroke-width="1" fill="none"></path></g><g transform="translate(150.2890625 578.6015625) rotate(0 13.529983520507812 12.5)"><text x="0" y="0" font-family="Virgil, Segoe UI Emoji" font-size="20px" fill="#1e1e1e" text-anchor="start" style="white-space: pre;" direction="ltr" dominant-baseline="text-before-edge">img</text></g><g stroke-linecap="round" transform="translate(398.046875 515.2421875) rotate(0 94.2734375 70.873046875)"><path d="M32 0 M32 0 C75.1 0.35, 118.07 0.64, 156.55 0 M32 0 C67.13 -1.15, 104.6 -0.91, 156.55 0 M156.55 0 C177.68 1.19, 189.81 10.09, 188.55 32 M156.55 0 C179.6 1.37, 189.61 11.76, 188.55 32 M188.55 32 C190.87 49.45, 190.42 65.71, 188.55 109.75 M188.55 32 C188.5 61.27, 187.78 91.61, 188.55 109.75 M188.55 109.75 C187.89 131.88, 178.48 140.24, 156.55 141.75 M188.55 109.75 C188.34 130.07, 178.93 142.94, 156.55 141.75 M156.55 141.75 C106.51 141.83, 60.24 140.89, 32 141.75 M156.55 141.75 C123.99 142.81, 90.95 141.91, 32 141.75 M32 141.75 C10.05 143.51, 0.85 132.32, 0 109.75 M32 141.75 C9.38 139.57, -0.64 132.3, 0 109.75 M0 109.75 C0.96 85.14, -0.39 62.7, 0 32 M0 109.75 C-1.51 79.3, -0.03 48.89, 0 32 M0 32 C-0.72 10.27, 12.6 0.8, 32 0 M0 32 C1.53 12.61, 8.49 2.02, 32 0" stroke="#1e1e1e" stroke-width="1" fill="none"></path></g><g transform="translate(455.12890625 606.21875) rotate(0 22.389976501464844 12.5)"><text x="0" y="0" font-family="Virgil, Segoe UI Emoji" font-size="20px" fill="#1e1e1e" text-anchor="start" style="white-space: pre;" direction="ltr" dominant-baseline="text-before-edge">text</text></g><g stroke-linecap="round" transform="translate(81.29036458333348 884.4869791666666) rotate(0 358.146484375 117.75000000000006)"><path d="M32 0 M32 0 C180.47 0.08, 327.34 -0.5, 684.29 0 M32 0 C223.95 1.98, 416.28 1.7, 684.29 0 M684.29 0 C703.99 0.39, 716.71 8.79, 716.29 32 M684.29 0 C707.03 -1.62, 714.83 9.73, 716.29 32 M716.29 32 C714.09 81.01, 716.8 130.67, 716.29 203.5 M716.29 32 C715.78 68.17, 716.62 105.13, 716.29 203.5 M716.29 203.5 C715.34 226.61, 705.92 236.76, 684.29 235.5 M716.29 203.5 C715.59 223.82, 705.62 237.16, 684.29 235.5 M684.29 235.5 C479.68 236.18, 275.31 236.04, 32 235.5 M684.29 235.5 C456.6 235.24, 228.8 235.67, 32 235.5 M32 235.5 C9.28 235.75, 1.01 225.82, 0 203.5 M32 235.5 C12.79 237.46, -1.11 226.73, 0 203.5 M0 203.5 C-0.08 147.42, 0.67 87.87, 0 32 M0 203.5 C1.03 150.78, -0.34 96.43, 0 32 M0 32 C1.01 10.3, 10.43 1.02, 32 0 M0 32 C-0.89 11.58, 8.51 2.07, 32 0" stroke="#1e1e1e" stroke-width="1" fill="none"></path></g><g transform="translate(206.94010416666652 910.3645833333335) rotate(0 23.179969787597656 12.5)"><text x="0" y="0" font-family="Virgil, Segoe UI Emoji" font-size="20px" fill="#1e1e1e" text-anchor="start" style="white-space: pre;" direction="ltr" dominant-baseline="text-before-edge">skills</text></g><g stroke-linecap="round" transform="translate(179.67838541666652 964.0546875) rotate(0 66.978515625 50.541015625)"><path d="M25.27 0 M25.27 0 C51.72 0.62, 80.41 -1.92, 108.69 0 M25.27 0 C42.74 -0.29, 59.4 -1.41, 108.69 0 M108.69 0 C125.14 -0.34, 133.2 7.24, 133.96 25.27 M108.69 0 C127.42 -1.95, 134.8 8.6, 133.96 25.27 M133.96 25.27 C133.09 42.23, 132.16 54.41, 133.96 75.81 M133.96 25.27 C134.39 43.79, 135.18 62.49, 133.96 75.81 M133.96 75.81 C132.14 92.3, 125.18 103.03, 108.69 101.08 M133.96 75.81 C133.92 90.48, 124.42 99.46, 108.69 101.08 M108.69 101.08 C82.85 102.21, 59.38 102.53, 25.27 101.08 M108.69 101.08 C86.53 100.03, 64.88 101.81, 25.27 101.08 M25.27 101.08 C8.92 99.44, -1.59 90.93, 0 75.81 M25.27 101.08 C7.88 101.97, -2.05 94.09, 0 75.81 M0 75.81 C0.54 61.57, -0.52 46.95, 0 25.27 M0 75.81 C0.95 64.84, 0.79 55.5, 0 25.27 M0 25.27 C1.07 9.36, 9.99 -1.44, 25.27 0 M0 25.27 C-2.28 10.23, 10.57 0.8, 25.27 0" stroke="#1e1e1e" stroke-width="1" fill="none"></path></g><g transform="translate(224.26692454020167 1002.095703125) rotate(0 22.389976501464844 12.5)"><text x="22.389976501464844" y="0" font-family="Virgil, Segoe UI Emoji" font-size="20px" fill="#1e1e1e" text-anchor="middle" style="white-space: pre;" direction="ltr" dominant-baseline="text-before-edge">text</text></g><g stroke-linecap="round" transform="translate(343.47916666666674 957.7942708333335) rotate(0 68 53.5)"><path d="M26.75 0 M26.75 0 C53.08 0.38, 80.78 -0.43, 109.25 0 M26.75 0 C58.04 0.56, 86.79 0.65, 109.25 0 M109.25 0 C127.82 1.55, 137.82 9.62, 136 26.75 M109.25 0 C127.02 -0.09, 134.75 9.26, 136 26.75 M136 26.75 C134.19 46.11, 135.63 63.91, 136 80.25 M136 26.75 C136.08 41.84, 136.13 57.83, 136 80.25 M136 80.25 C137.84 96.27, 128.4 106.14, 109.25 107 M136 80.25 C133.87 98.6, 126.64 105.95, 109.25 107 M109.25 107 C89.13 105.95, 67.26 106.22, 26.75 107 M109.25 107 C80.07 106.33, 51.46 106.69, 26.75 107 M26.75 107 C10.73 105.13, 0.46 98.93, 0 80.25 M26.75 107 C9.13 106.12, -1.9 98.8, 0 80.25 M0 80.25 C-1.82 64.6, -2.22 49.23, 0 26.75 M0 80.25 C0.44 62.2, -0.4 43.12, 0 26.75 M0 26.75 C0.13 7.69, 8.21 0.79, 26.75 0 M0 26.75 C0.99 10.86, 9.87 -0.52, 26.75 0" stroke="#1e1e1e" stroke-width="1" fill="none"></path></g><g transform="translate(389.0891901652019 998.7942708333335) rotate(0 22.389976501464844 12.5)"><text x="22.389976501464844" y="0" font-family="Virgil, Segoe UI Emoji" font-size="20px" fill="#1e1e1e" text-anchor="middle" style="white-space: pre;" direction="ltr" dominant-baseline="text-before-edge">text</text></g><g stroke-linecap="round" transform="translate(518.3684895833335 962.4479166666672) rotate(0 65.39192708333326 51.83658854166663)"><path d="M25.92 0 M25.92 0 C43.51 -0.85, 56.21 -0.19, 104.87 0 M25.92 0 C53.19 -0.53, 78.47 0.77, 104.87 0 M104.87 0 C120.57 1.44, 132.15 7.71, 130.78 25.92 M104.87 0 C121.98 -1.75, 128.8 8.54, 130.78 25.92 M130.78 25.92 C131.14 43.58, 130.01 57.91, 130.78 77.75 M130.78 25.92 C130.51 36.13, 130.84 46.72, 130.78 77.75 M130.78 77.75 C131.94 95.86, 123.59 102.09, 104.87 103.67 M130.78 77.75 C132.75 95.64, 120 103.69, 104.87 103.67 M104.87 103.67 C82.86 104.03, 57.38 103.18, 25.92 103.67 M104.87 103.67 C82.77 103.6, 61.52 103.39, 25.92 103.67 M25.92 103.67 C9.86 104.55, 0.1 96.48, 0 77.75 M25.92 103.67 C8.9 105.86, -2.09 95.19, 0 77.75 M0 77.75 C-1.68 62.56, 1.07 52.14, 0 25.92 M0 77.75 C0.58 59.28, -0.04 41.35, 0 25.92 M0 25.92 C0.18 9.39, 9.9 0.12, 25.92 0 M0 25.92 C2.18 6.53, 10.51 0.28, 25.92 0" stroke="#1e1e1e" stroke-width="1" fill="none"></path></g><g transform="translate(550.657552083333 1000.8007812500002) rotate(0 22.389976501464844 12.5)"><text x="0" y="0" font-family="Virgil, Segoe UI Emoji" font-size="20px" fill="#1e1e1e" text-anchor="start" style="white-space: pre;" direction="ltr" dominant-baseline="text-before-edge">text</text></g><g stroke-linecap="round" transform="translate(86.20349702380986 1151.999813988095) rotate(0 356.85686383928567 112.95619419642856)"><path d="M32 0 M32 0 C240.71 -1.75, 448.93 -1.8, 681.71 0 M32 0 C176.27 0.94, 320.6 0.27, 681.71 0 M681.71 0 C702.66 -0.32, 715.17 8.84, 713.71 32 M681.71 0 C704.67 2.23, 714.58 11.9, 713.71 32 M713.71 32 C710.8 74.36, 710.99 118.81, 713.71 193.91 M713.71 32 C714.11 66.36, 712.88 100.61, 713.71 193.91 M713.71 193.91 C714.26 215.81, 704.14 226.5, 681.71 225.91 M713.71 193.91 C711.73 214.72, 700.86 225.72, 681.71 225.91 M681.71 225.91 C471.97 224.55, 261.8 224.25, 32 225.91 M681.71 225.91 C456.62 227.83, 231.97 228, 32 225.91 M32 225.91 C12.05 225.07, 1.18 214.28, 0 193.91 M32 225.91 C11.55 228.03, 1.61 213.97, 0 193.91 M0 193.91 C0.71 148.82, 0.4 106.4, 0 32 M0 193.91 C1.8 140.86, 1.01 86.19, 0 32 M0 32 C-0.79 10.04, 8.91 0.28, 32 0 M0 32 C2 9.15, 9.04 1.5, 32 0" stroke="#e03131" stroke-width="1" fill="none"></path></g><g stroke-linecap="round" transform="translate(196.4397321428571 1244.6179315476188) rotate(0 120.38225446428578 51.9921875)"><path d="M26 0 M26 0 C94.24 1.89, 157.94 1.92, 214.77 0 M26 0 C99.61 1.32, 173.41 0.04, 214.77 0 M214.77 0 C231.36 1.84, 242.63 9.88, 240.76 26 M214.77 0 C231.46 -1.21, 239.23 10.58, 240.76 26 M240.76 26 C240.19 40.81, 240.8 55.15, 240.76 77.99 M240.76 26 C241.39 43.37, 240.88 60.16, 240.76 77.99 M240.76 77.99 C239.02 96.44, 233.82 105.76, 214.77 103.98 M240.76 77.99 C243.04 93.54, 233.03 105.96, 214.77 103.98 M214.77 103.98 C148.2 101.91, 82.42 104.18, 26 103.98 M214.77 103.98 C166.23 103.01, 117.87 104.3, 26 103.98 M26 103.98 C6.94 102.04, -1.93 97.12, 0 77.99 M26 103.98 C7.81 105.67, 1.39 95.47, 0 77.99 M0 77.99 C0.16 60.03, -0.76 38.43, 0 26 M0 77.99 C-0.69 60.84, -0.37 44.65, 0 26 M0 26 C1.54 8.87, 8.65 -1.64, 26 0 M0 26 C0.02 7.23, 7.58 -0.56, 26 0" stroke="#e03131" stroke-width="1" fill="none"></path></g><g transform="translate(240.27529761904748 1179.5212053571424) rotate(0 39.619956970214844 12.5)"><text x="0" y="0" font-family="Virgil, Segoe UI Emoji" font-size="20px" fill="#1e1e1e" text-anchor="start" style="white-space: pre;" direction="ltr" dominant-baseline="text-before-edge">projects</text></g><g transform="translate(272.3986235119046 1279.4123883928569) rotate(0 22.389976501464844 12.5)"><text x="0" y="0" font-family="Virgil, Segoe UI Emoji" font-size="20px" fill="#1e1e1e" text-anchor="start" style="white-space: pre;" direction="ltr" dominant-baseline="text-before-edge">text</text></g><g stroke-linecap="round" transform="translate(82.58277529761926 1435.2689732142856) rotate(0 359.80561755952374 137.8324962797618)"><path d="M32 0 M32 0 C208.86 -0.64, 385.88 0.54, 687.61 0 M32 0 C228.5 0.22, 424.76 -0.01, 687.61 0 M687.61 0 C709.42 0.29, 717.7 11.88, 719.61 32 M687.61 0 C710.17 -2.16, 718.63 10.76, 719.61 32 M719.61 32 C721.1 109.77, 721.45 183.64, 719.61 243.66 M719.61 32 C719.81 81.17, 719.44 128.97, 719.61 243.66 M719.61 243.66 C718.27 266.92, 706.98 274.26, 687.61 275.66 M719.61 243.66 C719.07 264.79, 711.06 277.73, 687.61 275.66 M687.61 275.66 C487.39 275.69, 288.41 275.02, 32 275.66 M687.61 275.66 C520.36 276.56, 353.4 276.07, 32 275.66 M32 275.66 C11.43 277.56, -0.56 266.35, 0 243.66 M32 275.66 C12.64 277.07, -0.37 264.31, 0 243.66 M0 243.66 C1.46 166.42, 0.68 90.23, 0 32 M0 243.66 C0.31 179.63, 1.01 116.45, 0 32 M0 32 C0.28 12.26, 12.61 -1.93, 32 0 M0 32 C0.27 10.99, 9.61 0.46, 32 0" stroke="#1e1e1e" stroke-width="1" fill="none"></path></g><g transform="translate(196.97451636904748 1451.341331845238) rotate(0 55.01995849609375 12.5)"><text x="0" y="0" font-family="Virgil, Segoe UI Emoji" font-size="20px" fill="#1e1e1e" text-anchor="start" style="white-space: pre;" direction="ltr" dominant-baseline="text-before-edge">contact me</text></g><g stroke-linecap="round" transform="translate(164.97395833333348 1491.1302083333333) rotate(0 96.98381696428567 55.172991071428555)"><path d="M27.59 0 M27.59 0 C81.37 -0.77, 134.34 -1.34, 166.38 0 M27.59 0 C65.36 -0.7, 103.85 -1.17, 166.38 0 M166.38 0 C185.53 0.6, 194.79 7.38, 193.97 27.59 M166.38 0 C185.45 -0.55, 192.94 10.76, 193.97 27.59 M193.97 27.59 C194.26 45.81, 195.01 65.46, 193.97 82.76 M193.97 27.59 C194.03 48.86, 192.97 68.5, 193.97 82.76 M193.97 82.76 C192.84 101.95, 185.34 110.66, 166.38 110.35 M193.97 82.76 C192.99 99.65, 185.49 112.46, 166.38 110.35 M166.38 110.35 C115.99 109.94, 64.86 108.9, 27.59 110.35 M166.38 110.35 C126.11 110.8, 88.27 111.82, 27.59 110.35 M27.59 110.35 C10.64 108.49, 1.11 101.95, 0 82.76 M27.59 110.35 C11.02 108.91, 0.31 102.97, 0 82.76 M0 82.76 C2.1 64.84, -0.29 47.06, 0 27.59 M0 82.76 C-0.64 70.16, -0.28 58.19, 0 27.59 M0 27.59 C-1.1 9.29, 10.24 0.3, 27.59 0 M0 27.59 C1.68 8.85, 8.49 0.16, 27.59 0" stroke="#1e1e1e" stroke-width="1" fill="none"></path></g><g transform="translate(239.5677987961543 1533.803199404762) rotate(0 22.3899765014649 12.5)"><text x="22.389976501464844" y="0" font-family="Virgil, Segoe UI Emoji" font-size="20px" fill="#1e1e1e" text-anchor="middle" style="white-space: pre;" direction="ltr" dominant-baseline="text-before-edge">text</text></g><g stroke-linecap="round" transform="translate(471.2304687500002 1500.0987723214287) rotate(0 132.10286458333337 53.72721354166663)"><path d="M26.86 0 M26.86 0 C105.13 -1.77, 182.55 -1.17, 237.34 0 M26.86 0 C72.16 -1.09, 117.83 -1.12, 237.34 0 M237.34 0 C255.73 -0.18, 264.43 9.15, 264.21 26.86 M237.34 0 C255.51 -0.22, 262.04 6.87, 264.21 26.86 M264.21 26.86 C263.49 38.02, 262.72 50.32, 264.21 80.59 M264.21 26.86 C264.89 42.68, 263.96 55.72, 264.21 80.59 M264.21 80.59 C262.28 98.92, 255.02 107.7, 237.34 107.45 M264.21 80.59 C263.21 98.4, 256.92 108.29, 237.34 107.45 M237.34 107.45 C190.99 106.88, 147.47 108.4, 26.86 107.45 M237.34 107.45 C164.69 109.29, 93.52 108.89, 26.86 107.45 M26.86 107.45 C8.83 108.75, -0.5 97.65, 0 80.59 M26.86 107.45 C7.83 108.72, 2.19 99.28, 0 80.59 M0 80.59 C-0.79 63.75, -1.7 50.22, 0 26.86 M0 80.59 C-0.34 62.86, -0.23 43.33, 0 26.86 M0 26.86 C0.28 7.83, 10.46 1.78, 26.86 0 M0 26.86 C-0.2 10.74, 10.64 0.39, 26.86 0" stroke="#1e1e1e" stroke-width="1" fill="none"></path></g><g transform="translate(547.9036458333337 1541.2120535714284) rotate(0 64.24994659423828 12.5)"><text x="0" y="0" font-family="Virgil, Segoe UI Emoji" font-size="20px" fill="#1e1e1e" text-anchor="start" style="white-space: pre;" direction="ltr" dominant-baseline="text-before-edge">contact form</text></g><g transform="translate(174.90234375000023 1642.5987723214287) rotate(0 83.61992645263672 12.5)"><text x="0" y="0" font-family="Virgil, Segoe UI Emoji" font-size="20px" fill="#e03131" text-anchor="start" style="white-space: pre;" direction="ltr" dominant-baseline="text-before-edge">social media links</text></g><g transform="translate(1082.2200520833337 58.22377232142881) rotate(0 70.55997467041016 17.5)"><text x="0" y="0" font-family="Virgil, Segoe UI Emoji" font-size="28px" fill="#1e1e1e" text-anchor="start" style="white-space: pre;" direction="ltr" dominant-baseline="text-before-edge">must have</text></g><g stroke-linecap="round" transform="translate(1032.7343749999998 68.80970982142881) rotate(0 18.5546875 15.556640624999986)"><path d="M27.77 1.29 C31.17 2.37, 34.91 5.88, 36.3 9.08 C37.69 12.29, 37.52 17.31, 36.11 20.54 C34.71 23.76, 31.1 26.71, 27.86 28.44 C24.63 30.18, 20.47 31.4, 16.69 30.94 C12.92 30.47, 8.08 28.05, 5.19 25.65 C2.31 23.25, -0.24 19.97, -0.62 16.53 C-1 13.09, 0.36 7.74, 2.93 5.03 C5.5 2.33, 10.56 0.8, 14.8 0.31 C19.04 -0.18, 25.71 1.49, 28.39 2.08 C31.08 2.66, 30.87 3.4, 30.92 3.79 M26.04 0.71 C29.16 1.97, 32.7 7.48, 34.38 10.47 C36.06 13.46, 37.2 15.54, 36.12 18.66 C35.05 21.78, 31.14 26.92, 27.95 29.17 C24.77 31.42, 20.88 32.85, 17.01 32.15 C13.14 31.45, 7.63 27.53, 4.73 24.96 C1.84 22.4, -0.12 19.67, -0.36 16.75 C-0.61 13.83, 1.12 9.96, 3.28 7.47 C5.43 4.97, 8.61 2.71, 12.58 1.78 C16.54 0.85, 24.56 1.71, 27.06 1.88 C29.57 2.05, 27.76 2.84, 27.61 2.8" stroke="#1e1e1e" stroke-width="1" fill="none"></path></g><g transform="translate(1100.9114583333337 141.45293898809547) rotate(0 80.10796356201172 17.5)"><text x="0" y="0" font-family="Virgil, Segoe UI Emoji" font-size="28px" fill="#1e1e1e" text-anchor="start" style="white-space: pre;" direction="ltr" dominant-baseline="text-before-edge">should have</text></g><g transform="translate(1116.8880208333337 216.14043898809547) rotate(0 72.61797332763672 17.5)"><text x="0" y="0" font-family="Virgil, Segoe UI Emoji" font-size="28px" fill="#1e1e1e" text-anchor="start" style="white-space: pre;" direction="ltr" dominant-baseline="text-before-edge">could have</text></g><g stroke-linecap="round" transform="translate(1039.8111979166667 148.33444940476215) rotate(0 16.708984375 17.5)"><path d="M11.92 1.24 C14.88 -0.1, 19.45 -0.15, 22.86 1.42 C26.27 2.99, 30.73 7.46, 32.38 10.68 C34.03 13.9, 33.67 17.2, 32.76 20.74 C31.85 24.28, 29.9 29.63, 26.92 31.91 C23.94 34.18, 18.57 34.51, 14.9 34.38 C11.22 34.25, 7.18 33.64, 4.85 31.11 C2.53 28.59, 1.19 23.14, 0.94 19.23 C0.69 15.33, 1.27 10.71, 3.35 7.68 C5.44 4.66, 11.43 2.17, 13.46 1.08 C15.48 -0.02, 15.36 0.83, 15.48 1.1 M15.04 0.23 C18.48 -0.21, 23.86 2.3, 26.91 4.38 C29.96 6.45, 32.32 9.3, 33.33 12.68 C34.33 16.06, 34.53 21.35, 32.94 24.67 C31.35 27.98, 27.1 31.12, 23.79 32.58 C20.48 34.05, 16.82 34.17, 13.06 33.44 C9.29 32.72, 3.12 31.06, 1.19 28.24 C-0.73 25.43, 0.67 20.54, 1.49 16.57 C2.31 12.6, 3.59 7.33, 6.1 4.43 C8.62 1.54, 14.74 -0.3, 16.57 -0.79 C18.41 -1.29, 17.31 0.84, 17.12 1.45" stroke="#e03131" stroke-width="1" fill="none"></path></g><g stroke-linecap="round" transform="translate(1048.3333333333337 228.49720982142884) rotate(0 19.010416666666515 12.548828125)"><path d="M25.2 0.83 C29.27 1.52, 33.79 3.22, 35.89 5.31 C37.98 7.4, 38.27 10.47, 37.77 13.37 C37.28 16.27, 35.92 20.77, 32.94 22.71 C29.96 24.64, 24.22 25.13, 19.89 24.96 C15.56 24.79, 10.21 23.27, 6.96 21.69 C3.7 20.11, 1.16 17.81, 0.36 15.46 C-0.43 13.1, 0.33 10, 2.18 7.56 C4.03 5.11, 7.34 2, 11.47 0.79 C15.61 -0.43, 24.19 -0.01, 27 0.26 C29.81 0.54, 28.46 2.23, 28.31 2.45 M13.58 0.62 C17.24 -0.27, 23.76 1.05, 27.49 1.84 C31.22 2.62, 34.06 3.2, 35.97 5.31 C37.87 7.43, 39.84 11.66, 38.93 14.53 C38.01 17.4, 34 20.98, 30.47 22.53 C26.94 24.08, 22.01 23.75, 17.76 23.84 C13.51 23.92, 7.92 24.44, 4.98 23.05 C2.05 21.66, 0.33 18.41, 0.14 15.48 C-0.04 12.56, 1.47 8.1, 3.86 5.51 C6.25 2.91, 12.91 0.65, 14.48 -0.08 C16.05 -0.81, 13.63 0.73, 13.29 1.12" stroke="#1971c2" stroke-width="1" fill="none"></path></g><g stroke-linecap="round" transform="translate(65.95703125000045 713.2693452380955) rotate(0 358.5156249999999 70.78450520833331)"><path d="M32 0 M32 0 C253.85 1.34, 475.88 1.37, 685.03 0 M32 0 C243.51 -0.95, 455.02 -0.82, 685.03 0 M685.03 0 C705.23 -1.29, 717.52 12.51, 717.03 32 M685.03 0 C708.46 -1.86, 716.81 8.45, 717.03 32 M717.03 32 C718.42 49.52, 716.59 67.71, 717.03 109.57 M717.03 32 C716.75 59.58, 716.46 87.06, 717.03 109.57 M717.03 109.57 C717.81 132.42, 705.28 143.03, 685.03 141.57 M717.03 109.57 C717.08 131.68, 705.26 139.33, 685.03 141.57 M685.03 141.57 C461.56 142.83, 237.01 143.86, 32 141.57 M685.03 141.57 C544.62 141.99, 404.07 141.64, 32 141.57 M32 141.57 C11.93 142.65, -0.45 132.23, 0 109.57 M32 141.57 C9.81 140.71, 0.91 132.39, 0 109.57 M0 109.57 C2.62 79.14, 0.58 51.72, 0 32 M0 109.57 C-0.07 88.18, -0.77 67.76, 0 32 M0 32 C-0.97 12.63, 9.66 -1.31, 32 0 M0 32 C2.09 8.57, 11.9 0.89, 32 0" stroke="#1971c2" stroke-width="1" fill="none"></path></g><g transform="translate(167.38281250000023 771.7198660714288) rotate(0 80.1219711303711 17.5)"><text x="0" y="0" font-family="Virgil, Segoe UI Emoji" font-size="28px" fill="#1971c2" text-anchor="start" style="white-space: pre;" direction="ltr" dominant-baseline="text-before-edge">blog section</text></g></svg>